<?xml version="1.0" standalone="no"?>
<!DOCTYPE svg PUBLIC "-//W3C//DTD SVG 20010904//EN"
 "http://www.w3.org/TR/2001/REC-SVG-20010904/DTD/svg10.dtd">
<svg version="1.0" xmlns="http://www.w3.org/2000/svg"
 width="225.000000pt" height="225.000000pt" viewBox="0 0 225.000000 225.000000"
 preserveAspectRatio="xMidYMid meet">

<g transform="translate(0.000000,225.000000) scale(0.100000,-0.100000)"
fill="#000000" stroke="none">
<path d="M1005 2014 c-11 -2 -51 -12 -89 -20 -313 -72 -566 -318 -657 -639
-29 -103 -36 -277 -14 -390 80 -425 452 -735 879 -735 510 1 918 428 893 935
-7 136 -26 214 -82 330 -119 247 -335 431 -584 497 -73 19 -297 34 -346 22z
m257 -138 c242 -47 430 -188 542 -406 62 -121 80 -200 80 -345 1 -145 -15
-212 -81 -345 -67 -137 -196 -266 -333 -333 -137 -67 -200 -82 -355 -81 -119
0 -138 2 -220 31 -425 147 -639 587 -484 997 87 234 309 429 539 475 30 6 64
13 75 15 47 9 169 5 237 -8z"/>
<path d="M1080 1640 c-19 -19 -20 -33 -20 -284 0 -262 0 -265 22 -280 19 -14
63 -16 284 -16 247 0 262 1 279 20 9 10 18 31 18 45 0 14 -9 35 -18 45 -17 19
-32 20 -237 20 l-218 0 0 215 c0 202 -1 216 -20 235 -11 11 -31 20 -45 20 -14
0 -34 -9 -45 -20z"/>
</g>
</svg>
